<svg width="19" height="18" viewBox="0 0 19 18" fill="none" xmlns="http://www.w3.org/2000/svg">
<path d="M13.25 0C11.9053 0 10.6865 0.251953 9.73438 0.726562C8.78223 1.20117 8 1.97461 8 3V6C8 6.09668 8.03223 6.19043 8.04688 6.28125C7.34961 6.09961 6.57617 6 5.75 6C4.40527 6 3.18652 6.25195 2.23438 6.72656C1.28223 7.20117 0.5 7.97461 0.5 9V15C0.5 16.0254 1.28223 16.7988 2.23438 17.2734C3.18652 17.748 4.40527 18 5.75 18C7.09473 18 8.31348 17.748 9.26562 17.2734C10.2178 16.7988 11 16.0254 11 15V14.6953C11.6885 14.877 12.4414 15 13.25 15C14.5947 15 15.8135 14.748 16.7656 14.2734C17.7178 13.7988 18.5 13.0254 18.5 12V3C18.5 1.97461 17.7178 1.20117 16.7656 0.726562C15.8135 0.251953 14.5947 0 13.25 0ZM13.25 1.5C14.3926 1.5 15.4092 1.74609 16.0859 2.08594C16.7627 2.42578 17 2.7832 17 3C17 3.2168 16.7627 3.57422 16.0859 3.91406C15.4092 4.25391 14.3926 4.5 13.25 4.5C12.1074 4.5 11.0908 4.25391 10.4141 3.91406C9.7373 3.57422 9.5 3.2168 9.5 3C9.5 2.7832 9.7373 2.42578 10.4141 2.08594C11.0908 1.74609 12.1074 1.5 13.25 1.5ZM9.5 5.13281C9.5791 5.17676 9.65234 5.23242 9.73438 5.27344C10.6865 5.74805 11.9053 6 13.25 6C14.5947 6 15.8135 5.74805 16.7656 5.27344C16.8477 5.23242 16.9209 5.17676 17 5.13281V6C17 6.2168 16.7627 6.57422 16.0859 6.91406C15.4092 7.25391 14.3926 7.5 13.25 7.5C12.1074 7.5 11.0908 7.25391 10.4141 6.91406C9.7373 6.57422 9.5 6.2168 9.5 6V5.13281ZM5.75 7.5C6.89258 7.5 7.90918 7.74609 8.58594 8.08594C9.2627 8.42578 9.5 8.7832 9.5 9C9.5 9.2168 9.2627 9.57422 8.58594 9.91406C7.90918 10.2539 6.89258 10.5 5.75 10.5C4.60742 10.5 3.59082 10.2539 2.91406 9.91406C2.2373 9.57422 2 9.2168 2 9C2 8.7832 2.2373 8.42578 2.91406 8.08594C3.59082 7.74609 4.60742 7.5 5.75 7.5ZM17 8.13281V9C17 9.2168 16.7627 9.57422 16.0859 9.91406C15.4092 10.2539 14.3926 10.5 13.25 10.5C12.3975 10.5 11.627 10.3594 11 10.1484V9C11 8.90332 10.9678 8.80957 10.9531 8.71875C11.6504 8.90039 12.4238 9 13.25 9C14.5947 9 15.8135 8.74805 16.7656 8.27344C16.8477 8.23242 16.9209 8.17676 17 8.13281ZM2 11.1328C2.0791 11.1768 2.15234 11.2324 2.23438 11.2734C3.18652 11.748 4.40527 12 5.75 12C7.09473 12 8.31348 11.748 9.26562 11.2734C9.34766 11.2324 9.4209 11.1768 9.5 11.1328V12C9.5 12.2168 9.2627 12.5742 8.58594 12.9141C7.90918 13.2539 6.89258 13.5 5.75 13.5C4.60742 13.5 3.59082 13.2539 2.91406 12.9141C2.2373 12.5742 2 12.2168 2 12V11.1328ZM17 11.1328V12C17 12.2168 16.7627 12.5742 16.0859 12.9141C15.4092 13.2539 14.3926 13.5 13.25 13.5C12.3975 13.5 11.627 13.3799 11 13.1719V11.7188C11.6885 11.9004 12.4385 12 13.25 12C14.5947 12 15.8135 11.748 16.7656 11.2734C16.8477 11.2324 16.9209 11.1768 17 11.1328ZM2 14.1328C2.0791 14.1768 2.15234 14.2324 2.23438 14.2734C3.18652 14.748 4.40527 15 5.75 15C7.09473 15 8.31348 14.748 9.26562 14.2734C9.34766 14.2324 9.4209 14.1768 9.5 14.1328V15C9.5 15.2168 9.2627 15.5742 8.58594 15.9141C7.90918 16.2539 6.89258 16.5 5.75 16.5C4.60742 16.5 3.59082 16.2539 2.91406 15.9141C2.2373 15.5742 2 15.2168 2 15V14.1328Z" fill="#1A3835"/>
</svg>
