<svg width="22" height="16" viewBox="0 0 22 16" fill="none" xmlns="http://www.w3.org/2000/svg">
<path d="M7.625 0.0117798C6.18359 0.0117798 5 1.19537 5 2.63678C5 4.07819 6.18359 5.26178 7.625 5.26178C9.06641 5.26178 10.25 4.07819 10.25 2.63678C10.25 1.19537 9.06641 0.0117798 7.625 0.0117798ZM14.375 0.0117798C12.9336 0.0117798 11.75 1.19537 11.75 2.63678C11.75 4.07819 12.9336 5.26178 14.375 5.26178C15.8164 5.26178 17 4.07819 17 2.63678C17 1.19537 15.8164 0.0117798 14.375 0.0117798ZM7.625 1.51178C8.25488 1.51178 8.75 2.0069 8.75 2.63678C8.75 3.26666 8.25488 3.76178 7.625 3.76178C6.99512 3.76178 6.5 3.26666 6.5 2.63678C6.5 2.0069 6.99512 1.51178 7.625 1.51178ZM14.375 1.51178C15.0049 1.51178 15.5 2.0069 15.5 2.63678C15.5 3.26666 15.0049 3.76178 14.375 3.76178C13.7451 3.76178 13.25 3.26666 13.25 2.63678C13.25 2.0069 13.7451 1.51178 14.375 1.51178ZM4.25 4.51178C2.60059 4.51178 1.25 5.86237 1.25 7.51178C1.25 8.34674 1.60742 9.09967 2.16406 9.64459C1.16504 10.3214 0.5 11.4727 0.5 12.7618H2C2 11.5108 2.99902 10.5118 4.25 10.5118C5.50098 10.5118 6.5 11.5108 6.5 12.7618H8C8 11.4727 7.33496 10.3214 6.33594 9.64459C6.89258 9.09967 7.25 8.34674 7.25 7.51178C7.25 5.86237 5.89941 4.51178 4.25 4.51178ZM8 12.7618C7.53125 13.3887 7.25 14.1768 7.25 15.0118H8.75C8.75 13.7608 9.74902 12.7618 11 12.7618C12.251 12.7618 13.25 13.7608 13.25 15.0118H14.75C14.75 14.1768 14.4688 13.3887 14 12.7618C13.7451 12.4219 13.4375 12.1319 13.0859 11.8946C13.6426 11.3497 14 10.5967 14 9.76178C14 8.11237 12.6494 6.76178 11 6.76178C9.35059 6.76178 8 8.11237 8 9.76178C8 10.5967 8.35742 11.3497 8.91406 11.8946C8.5625 12.1319 8.25488 12.4219 8 12.7618ZM14 12.7618H15.5C15.5 11.5108 16.499 10.5118 17.75 10.5118C19.001 10.5118 20 11.5108 20 12.7618H21.5C21.5 11.4727 20.835 10.3214 19.8359 9.64459C20.3926 9.09967 20.75 8.34674 20.75 7.51178C20.75 5.86237 19.3994 4.51178 17.75 4.51178C16.1006 4.51178 14.75 5.86237 14.75 7.51178C14.75 8.34674 15.1074 9.09967 15.6641 9.64459C14.665 10.3214 14 11.4727 14 12.7618ZM4.25 6.01178C5.08789 6.01178 5.75 6.67389 5.75 7.51178C5.75 8.34967 5.08789 9.01178 4.25 9.01178C3.41211 9.01178 2.75 8.34967 2.75 7.51178C2.75 6.67389 3.41211 6.01178 4.25 6.01178ZM17.75 6.01178C18.5879 6.01178 19.25 6.67389 19.25 7.51178C19.25 8.34967 18.5879 9.01178 17.75 9.01178C16.9121 9.01178 16.25 8.34967 16.25 7.51178C16.25 6.67389 16.9121 6.01178 17.75 6.01178ZM11 8.26178C11.8379 8.26178 12.5 8.92389 12.5 9.76178C12.5 10.5997 11.8379 11.2618 11 11.2618C10.1621 11.2618 9.5 10.5997 9.5 9.76178C9.5 8.92389 10.1621 8.26178 11 8.26178Z" fill="#1A3835"/>
</svg>
