<svg width="20" height="20" viewBox="0 0 20 20" fill="none" xmlns="http://www.w3.org/2000/svg">
<path d="M10 0.25C4.62402 0.25 0.25 4.62402 0.25 10C0.25 15.376 4.62402 19.75 10 19.75C15.376 19.75 19.75 15.376 19.75 10C19.75 4.62402 15.376 0.25 10 0.25ZM9.15625 1.79688C9.18848 1.79395 9.21777 1.7998 9.25 1.79688V10.3047L9.46094 10.5391L15.2969 16.3516C13.8672 17.5469 12.0156 18.25 10 18.25C5.43555 18.25 1.75 14.5645 1.75 10C1.75 5.71973 4.99023 2.21875 9.15625 1.79688ZM10.75 1.79688C14.7139 2.1543 17.8457 5.28613 18.2031 9.25H10.75V1.79688ZM11.8281 10.75H18.2031C18.0479 12.4697 17.3975 14.0459 16.3516 15.2969L11.8281 10.75Z" fill="#1A3835"/>
</svg>
