<svg width="10" height="12" viewBox="0 0 10 12" fill="none" xmlns="http://www.w3.org/2000/svg">
<path d="M5.80901 5.99927L9.91057 1.11021C9.97933 1.02896 9.92151 0.905518 9.81526 0.905518H8.56839C8.49495 0.905518 8.42464 0.93833 8.3762 0.99458L4.99339 5.02739L1.61057 0.99458C1.5637 0.93833 1.49339 0.905518 1.41839 0.905518H0.171512C0.065262 0.905518 0.00744937 1.02896 0.0761994 1.11021L4.17776 5.99927L0.0761994 10.8883C0.0607987 10.9064 0.0509187 10.9286 0.0477317 10.9521C0.0445448 10.9757 0.0481849 10.9997 0.0582202 11.0212C0.0682556 11.0428 0.0842646 11.061 0.104346 11.0737C0.124428 11.0865 0.147739 11.0931 0.171512 11.093H1.41839C1.49182 11.093 1.56214 11.0602 1.61057 11.004L4.99339 6.97114L8.3762 11.004C8.42307 11.0602 8.49339 11.093 8.56839 11.093H9.81526C9.92151 11.093 9.97933 10.9696 9.91057 10.8883L5.80901 5.99927Z" fill="#A30000"/>
</svg>
