<svg width="12" height="14" viewBox="0 0 12 14" fill="none" xmlns="http://www.w3.org/2000/svg">
<path d="M3.625 1.87358H3.5C3.56875 1.87358 3.625 1.81733 3.625 1.74858V1.87358H8.375V1.74858C8.375 1.81733 8.43125 1.87358 8.5 1.87358H8.375V2.99858H9.5V1.74858C9.5 1.19702 9.05156 0.748581 8.5 0.748581H3.5C2.94844 0.748581 2.5 1.19702 2.5 1.74858V2.99858H3.625V1.87358ZM11.5 2.99858H0.5C0.223438 2.99858 0 3.22202 0 3.49858V3.99858C0 4.06733 0.05625 4.12358 0.125 4.12358H1.06875L1.45469 12.2955C1.47969 12.8283 1.92031 13.2486 2.45313 13.2486H9.54688C10.0813 13.2486 10.5203 12.8298 10.5453 12.2955L10.9313 4.12358H11.875C11.9438 4.12358 12 4.06733 12 3.99858V3.49858C12 3.22202 11.7766 2.99858 11.5 2.99858ZM9.42656 12.1236H2.57344L2.19531 4.12358H9.80469L9.42656 12.1236Z" fill="#6C6D75"/>
</svg>
