<svg width="24" height="24" viewBox="0 0 24 24" fill="none" xmlns="http://www.w3.org/2000/svg">
<path fill-rule="evenodd" clip-rule="evenodd" d="M5 20.25V2.25H18.8462V10.3248H17.4615V3.63462H6.38462V18.8654H13.9387V20.25H5ZM7.76923 9.17308V5.01923H16.0769V9.17308H7.76923ZM14.6923 6.40385H9.15385V7.78846H14.6923V6.40385ZM8.46154 11.9423V10.5577H9.84615V11.9423H8.46154ZM11.2308 11.9423V10.5577H12.6154V11.9423H11.2308ZM14 11.9423V10.5577H15.3846V11.9423H14ZM8.46154 14.7115V13.3269H9.84615V14.7115H8.46154ZM11.2308 14.7115V13.3269H12.6154V14.7115H11.2308ZM8.46154 17.4808V16.0962H9.84615V17.4808H8.46154ZM11.2308 17.4808V16.0962H12.6154V17.4808H11.2308Z" fill="#1A3835"/>
<path d="M17.4709 12V13.5C16.1959 13.725 15.2209 14.775 15.2209 16.125C15.2209 17.625 16.3459 18.75 17.8459 18.75H18.5959C19.1959 18.75 19.7209 19.275 19.7209 19.875C19.7209 20.475 19.1959 21 18.5959 21H15.9709V22.5H17.4709V24H18.9709V22.5C20.2459 22.275 21.2209 21.225 21.2209 19.875C21.2209 18.375 20.0959 17.25 18.5959 17.25H17.8459C17.2459 17.25 16.7209 16.725 16.7209 16.125C16.7209 15.525 17.2459 15 17.8459 15H20.4709V13.5H18.9709V12H17.4709Z" fill="#1A3835"/>
</svg>
