<svg width="8" height="12" viewBox="0 0 8 12" fill="none" xmlns="http://www.w3.org/2000/svg">
<path d="M7.233 7.97536C7.233 5.95621 5.57925 5.72612 4.25052 5.54154C2.80239 5.3399 1.983 5.16529 1.983 3.91842C1.983 2.87148 3.07985 2.5 4.01903 2.5C4.48714 2.48486 4.95214 2.58121 5.37569 2.78111C5.79924 2.981 6.16921 3.27872 6.45508 3.64971L7.13592 3.10029C6.82976 2.70663 6.44882 2.37736 6.01499 2.13141C5.58116 1.88545 5.103 1.72765 4.608 1.66709V0.3125H3.733V1.63462C2.15135 1.73052 1.108 2.62337 1.108 3.91837C1.108 5.98775 2.78362 6.22081 4.13003 6.40775C5.553 6.60585 6.358 6.7763 6.358 7.97536C6.358 9.30199 4.98748 9.5 4.1705 9.5C2.67013 9.5 2.03628 9.07829 1.44842 8.35029L0.767578 8.89971C1.11442 9.35675 1.56302 9.72665 2.07778 9.98007C2.59253 10.2335 3.15926 10.3634 3.733 10.3596V11.6875H4.608V10.3554C6.23795 10.2223 7.233 9.33721 7.233 7.97536Z" fill="#6C6D75"/>
</svg>
