<svg width="14" height="14" viewBox="0 0 14 14" fill="none" xmlns="http://www.w3.org/2000/svg">
<path d="M3.02656 10.7486C3.05781 10.7486 3.08906 10.7455 3.12031 10.7408L5.74844 10.2798C5.77969 10.2736 5.80938 10.2595 5.83125 10.2361L12.4547 3.61264C12.4692 3.59819 12.4807 3.58102 12.4885 3.56212C12.4963 3.54321 12.5004 3.52295 12.5004 3.50249C12.5004 3.48202 12.4963 3.46176 12.4885 3.44286C12.4807 3.42396 12.4692 3.40679 12.4547 3.39233L9.85781 0.793893C9.82813 0.764206 9.78906 0.748581 9.74688 0.748581C9.70469 0.748581 9.66563 0.764206 9.63594 0.793893L3.0125 7.41733C2.98906 7.44077 2.975 7.46889 2.96875 7.50014L2.50781 10.1283C2.49261 10.212 2.49804 10.2981 2.52364 10.3793C2.54923 10.4604 2.59421 10.5341 2.65469 10.5939C2.75781 10.6939 2.8875 10.7486 3.02656 10.7486ZM4.07969 8.02358L9.74688 2.35796L10.8922 3.50327L5.225 9.16889L3.83594 9.41421L4.07969 8.02358ZM12.75 12.0611H1.25C0.973438 12.0611 0.75 12.2845 0.75 12.5611V13.1236C0.75 13.1923 0.80625 13.2486 0.875 13.2486H13.125C13.1938 13.2486 13.25 13.1923 13.25 13.1236V12.5611C13.25 12.2845 13.0266 12.0611 12.75 12.0611Z" fill="#6C6D75"/>
</svg>
