<svg width="18" height="4" viewBox="0 0 18 4" fill="none" xmlns="http://www.w3.org/2000/svg">
<path d="M0.382812 2.0918C0.382812 1.61328 0.551432 1.2054 0.888672 0.868164C1.23047 0.530924 1.63835 0.362305 2.1123 0.362305C2.59082 0.362305 2.9987 0.530924 3.33594 0.868164C3.67773 1.2054 3.84863 1.61328 3.84863 2.0918C3.84863 2.57031 3.67773 2.98047 3.33594 3.32227C2.9987 3.65951 2.59082 3.82812 2.1123 3.82812C1.63835 3.82812 1.23047 3.65951 0.888672 3.32227C0.551432 2.98047 0.382812 2.57031 0.382812 2.0918ZM7.29102 2.0918C7.29102 1.61328 7.45964 1.2054 7.79688 0.868164C8.13867 0.530924 8.54655 0.362305 9.02051 0.362305C9.49902 0.362305 9.9069 0.530924 10.2441 0.868164C10.5859 1.2054 10.7568 1.61328 10.7568 2.0918C10.7568 2.57031 10.5859 2.98047 10.2441 3.32227C9.9069 3.65951 9.49902 3.82812 9.02051 3.82812C8.54655 3.82812 8.13867 3.65951 7.79688 3.32227C7.45964 2.98047 7.29102 2.57031 7.29102 2.0918ZM14.1992 2.0918C14.1992 1.61328 14.3678 1.2054 14.7051 0.868164C15.0469 0.530924 15.4548 0.362305 15.9287 0.362305C16.4072 0.362305 16.8151 0.530924 17.1523 0.868164C17.4941 1.2054 17.665 1.61328 17.665 2.0918C17.665 2.57031 17.4941 2.98047 17.1523 3.32227C16.8151 3.65951 16.4072 3.82812 15.9287 3.82812C15.4548 3.82812 15.0469 3.65951 14.7051 3.32227C14.3678 2.98047 14.1992 2.57031 14.1992 2.0918Z" fill="#C2C9D1"/>
<path d="M0.382812 2.0918C0.382812 1.61328 0.551432 1.2054 0.888672 0.868164C1.23047 0.530924 1.63835 0.362305 2.1123 0.362305C2.59082 0.362305 2.9987 0.530924 3.33594 0.868164C3.67773 1.2054 3.84863 1.61328 3.84863 2.0918C3.84863 2.57031 3.67773 2.98047 3.33594 3.32227C2.9987 3.65951 2.59082 3.82812 2.1123 3.82812C1.63835 3.82812 1.23047 3.65951 0.888672 3.32227C0.551432 2.98047 0.382812 2.57031 0.382812 2.0918ZM7.29102 2.0918C7.29102 1.61328 7.45964 1.2054 7.79688 0.868164C8.13867 0.530924 8.54655 0.362305 9.02051 0.362305C9.49902 0.362305 9.9069 0.530924 10.2441 0.868164C10.5859 1.2054 10.7568 1.61328 10.7568 2.0918C10.7568 2.57031 10.5859 2.98047 10.2441 3.32227C9.9069 3.65951 9.49902 3.82812 9.02051 3.82812C8.54655 3.82812 8.13867 3.65951 7.79688 3.32227C7.45964 2.98047 7.29102 2.57031 7.29102 2.0918ZM14.1992 2.0918C14.1992 1.61328 14.3678 1.2054 14.7051 0.868164C15.0469 0.530924 15.4548 0.362305 15.9287 0.362305C16.4072 0.362305 16.8151 0.530924 17.1523 0.868164C17.4941 1.2054 17.665 1.61328 17.665 2.0918C17.665 2.57031 17.4941 2.98047 17.1523 3.32227C16.8151 3.65951 16.4072 3.82812 15.9287 3.82812C15.4548 3.82812 15.0469 3.65951 14.7051 3.32227C14.3678 2.98047 14.1992 2.57031 14.1992 2.0918Z" fill="white" fill-opacity="0.5"/>
</svg>
