<svg width="14" height="10" viewBox="0 0 14 10" fill="none" xmlns="http://www.w3.org/2000/svg">
<path d="M12.25 0.625H1.75C1.51794 0.625 1.29538 0.717187 1.13128 0.881282C0.967187 1.04538 0.875 1.26794 0.875 1.5V8.5C0.875 8.73207 0.967187 8.95462 1.13128 9.11872C1.29538 9.28281 1.51794 9.375 1.75 9.375H12.25C12.4821 9.375 12.7046 9.28281 12.8687 9.11872C13.0328 8.95462 13.125 8.73207 13.125 8.5V1.5C13.125 1.26794 13.0328 1.04538 12.8687 0.881282C12.7046 0.717187 12.4821 0.625 12.25 0.625ZM11.2875 1.5L7 4.46625L2.7125 1.5H11.2875ZM1.75 8.5V1.89812L6.75063 5.35875C6.82386 5.40956 6.91087 5.43678 7 5.43678C7.08913 5.43678 7.17614 5.40956 7.24937 5.35875L12.25 1.89812V8.5H1.75Z" fill="#6C6D75"/>
</svg>
