<svg width="4" height="12" viewBox="0 0 4 12" fill="none" xmlns="http://www.w3.org/2000/svg">
<path d="M0.713867 10.7143C0.713867 11.0553 0.849326 11.3823 1.09044 11.6234C1.33156 11.8645 1.65859 12 1.99958 12C2.34057 12 2.6676 11.8645 2.90872 11.6234C3.14984 11.3823 3.2853 11.0553 3.2853 10.7143C3.2853 10.3733 3.14984 10.0463 2.90872 9.80515C2.6676 9.56403 2.34057 9.42857 1.99958 9.42857C1.65859 9.42857 1.33156 9.56403 1.09044 9.80515C0.849326 10.0463 0.713867 10.3733 0.713867 10.7143ZM1.35672 7.71429H2.64244C2.7603 7.71429 2.85672 7.61786 2.85672 7.5V0.214286C2.85672 0.0964286 2.7603 0 2.64244 0H1.35672C1.23887 0 1.14244 0.0964286 1.14244 0.214286V7.5C1.14244 7.61786 1.23887 7.71429 1.35672 7.71429Z" fill="#F1A864"/>
</svg>
