<svg width="22" height="22" viewBox="0 0 22 22" fill="none" xmlns="http://www.w3.org/2000/svg">
<path d="M8 0.5C5.1084 0.5 2.75 2.8584 2.75 5.75C2.75 7.55762 3.67285 9.16309 5.07031 10.1094C2.39551 11.2578 0.5 13.9121 0.5 17H2C2 13.6777 4.67773 11 8 11C9.03125 11 9.99219 11.2695 10.8359 11.7266C10.0039 12.7578 9.5 14.0762 9.5 15.5C9.5 18.8047 12.1953 21.5 15.5 21.5C18.8047 21.5 21.5 18.8047 21.5 15.5C21.5 12.1953 18.8047 9.5 15.5 9.5C14.1904 9.5 12.9717 9.93066 11.9844 10.6484C11.6533 10.4404 11.293 10.2646 10.9297 10.1094C12.3271 9.16309 13.25 7.55762 13.25 5.75C13.25 2.8584 10.8916 0.5 8 0.5ZM8 2C10.0801 2 11.75 3.66992 11.75 5.75C11.75 7.83008 10.0801 9.5 8 9.5C5.91992 9.5 4.25 7.83008 4.25 5.75C4.25 3.66992 5.91992 2 8 2ZM15.5 11C17.9932 11 20 13.0068 20 15.5C20 17.9932 17.9932 20 15.5 20C13.0068 20 11 17.9932 11 15.5C11 13.0068 13.0068 11 15.5 11ZM17.9609 13.4609L15.5 15.9219L13.7891 14.2109L12.7109 15.2891L14.9609 17.5391L15.5 18.0547L16.0391 17.5391L19.0391 14.5391L17.9609 13.4609Z" fill="#1A3835"/>
</svg>
