<svg width="16" height="16" viewBox="0 0 16 16" fill="none" xmlns="http://www.w3.org/2000/svg">
<path d="M3.125 0.5C1.68359 0.5 0.5 1.68359 0.5 3.125V5.375C0.5 6.81641 1.68359 8 3.125 8C4.56641 8 5.75 6.81641 5.75 5.375V3.125C5.75 1.68359 4.56641 0.5 3.125 0.5ZM11.5625 0.5L2.5625 15.5H4.4375L13.4375 0.5H11.5625ZM3.125 2C3.75488 2 4.25 2.49512 4.25 3.125V5.375C4.25 6.00488 3.75488 6.5 3.125 6.5C2.49512 6.5 2 6.00488 2 5.375V3.125C2 2.49512 2.49512 2 3.125 2ZM12.875 8C11.4336 8 10.25 9.18359 10.25 10.625V12.875C10.25 14.3164 11.4336 15.5 12.875 15.5C14.3164 15.5 15.5 14.3164 15.5 12.875V10.625C15.5 9.18359 14.3164 8 12.875 8ZM12.875 9.5C13.5049 9.5 14 9.99512 14 10.625V12.875C14 13.5049 13.5049 14 12.875 14C12.2451 14 11.75 13.5049 11.75 12.875V10.625C11.75 9.99512 12.2451 9.5 12.875 9.5Z" fill="#1A3835"/>
</svg>
