<svg id="Layer_1" data-name="Layer 1" xmlns="http://www.w3.org/2000/svg" viewBox="0 0 1256.44 1256.44">
  <defs>
    <style>
      .cls-1 {
        fill: #1a3835;
      }

      .cls-2 {
        fill: #fefefe;
      }
    </style>
  </defs>
  <g>
    <rect class="cls-1" width="1256.44" height="1256.44"/>
    <path class="cls-2" d="M524.42,943.69q-125.08,0-250.18,0c-39.31-.06-58.86-18.8-58.36-58,.56-44.26-4.13-88.78,4.43-132.75C239,656.64,321.6,582,419.44,576.16a1734.87,1734.87,0,0,1,212.08.12C737.92,583,826.4,673.7,832.24,780.51c2,36.21,1.35,72.59,1,108.88-.39,35-20,54.13-55.14,54.23C693.51,943.84,609,943.69,524.42,943.69Z" transform="translate(103.87 69.05)"/>
    <path class="cls-2" d="M701.88,353c-.49,98.4-81.36,178.81-178.48,177.46A178,178,0,0,1,347.28,352.33c-.08-99.4,79.87-178.63,179.34-177.73C624.26,175.48,702.37,255,701.88,353Z" transform="translate(103.87 69.05)"/>
  </g>
</svg>
