<svg id="Layer_1" data-name="Layer 1" xmlns="http://www.w3.org/2000/svg" viewBox="0 0 2000 2000">
  <defs>
    <style>
      .cls-1 {
        fill: #1b3936;
      }

      .cls-2 {
        fill: #fff;
      }
    </style>
  </defs>
  <g>
    <rect class="cls-1" width="1080" height="1080"/>
    <path class="cls-2" d="M1000.11,1612.09q-199.11,0-398.23-.06c-62.57-.08-93.7-29.92-92.91-92.25.89-70.46-6.57-141.32,7-211.32,29.82-153.3,161.24-272.15,317-281.4a2759.41,2759.41,0,0,1,337.59.19C1340,1038,1480.8,1182.32,1490.1,1352.34c3.15,57.63,2.14,115.54,1.5,173.31-.62,55.76-31.87,86.17-87.76,86.32C1269.27,1612.33,1134.69,1612.08,1000.11,1612.09Z" transform="translate(0)"/>
    <path class="cls-2" d="M1282.59,671.75c-.78,156.63-129.51,284.63-284.1,282.47C842.6,952.05,718.26,826.33,718.14,670.76,718,512.54,845.28,386.41,1003.61,387.85,1159,389.26,1283.37,515.8,1282.59,671.75Z" transform="translate(0)"/>
  </g>
</svg>
