<svg width="18" height="21" viewBox="0 0 18 21" fill="none" xmlns="http://www.w3.org/2000/svg">
<path d="M9 0.0117798C8.055 0.0117798 7.38762 0.67928 7.05762 1.51178H0.75V20.2618H17.25V1.51178H10.9424C10.6124 0.67928 9.945 0.0117798 9 0.0117798ZM9 1.51178C9.4125 1.51178 9.75 1.84928 9.75 2.26178V3.01178H12V4.51178H6V3.01178H8.25V2.26178C8.25 1.84928 8.5875 1.51178 9 1.51178ZM2.25 3.01178H4.5V6.01178H13.5V3.01178H15.75V18.7618H2.25V3.01178ZM3.75 8.26178V9.76178H5.25V8.26178H3.75ZM6.75 8.26178V9.76178H14.25V8.26178H6.75ZM3.75 11.2618V12.7618H5.25V11.2618H3.75ZM6.75 11.2618V12.7618H14.25V11.2618H6.75ZM3.75 14.2618V15.7618H5.25V14.2618H3.75ZM6.75 14.2618V15.7618H14.25V14.2618H6.75Z" fill="#1A3835"/>
</svg>
