<svg width="18" height="19" viewBox="0 0 18 19" fill="none" xmlns="http://www.w3.org/2000/svg">
<path d="M12.75 0.51178C11.4053 0.51178 10.1865 0.763733 9.23438 1.23834C8.28223 1.71295 7.5 2.48639 7.5 3.51178V6.51178C7.5 6.60846 7.53223 6.70221 7.54688 6.79303C6.84961 6.61139 6.07617 6.51178 5.25 6.51178C3.90527 6.51178 2.68652 6.76373 1.73438 7.23834C0.782227 7.71295 0 8.48639 0 9.51178V15.5118C0 16.5372 0.782227 17.3106 1.73438 17.7852C2.68652 18.2598 3.90527 18.5118 5.25 18.5118C6.59473 18.5118 7.81348 18.2598 8.76562 17.7852C9.71777 17.3106 10.5 16.5372 10.5 15.5118V15.2071C11.1885 15.3887 11.9414 15.5118 12.75 15.5118C14.0947 15.5118 15.3135 15.2598 16.2656 14.7852C17.2178 14.3106 18 13.5372 18 12.5118V3.51178C18 2.48639 17.2178 1.71295 16.2656 1.23834C15.3135 0.763733 14.0947 0.51178 12.75 0.51178ZM12.75 2.01178C13.8926 2.01178 14.9092 2.25787 15.5859 2.59772C16.2627 2.93756 16.5 3.29498 16.5 3.51178C16.5 3.72858 16.2627 4.086 15.5859 4.42584C14.9092 4.76569 13.8926 5.01178 12.75 5.01178C11.6074 5.01178 10.5908 4.76569 9.91406 4.42584C9.2373 4.086 9 3.72858 9 3.51178C9 3.29498 9.2373 2.93756 9.91406 2.59772C10.5908 2.25787 11.6074 2.01178 12.75 2.01178ZM9 5.64459C9.0791 5.68854 9.15234 5.7442 9.23438 5.78522C10.1865 6.25983 11.4053 6.51178 12.75 6.51178C14.0947 6.51178 15.3135 6.25983 16.2656 5.78522C16.3477 5.7442 16.4209 5.68854 16.5 5.64459V6.51178C16.5 6.72858 16.2627 7.086 15.5859 7.42584C14.9092 7.76569 13.8926 8.01178 12.75 8.01178C11.6074 8.01178 10.5908 7.76569 9.91406 7.42584C9.2373 7.086 9 6.72858 9 6.51178V5.64459ZM5.25 8.01178C6.39258 8.01178 7.40918 8.25787 8.08594 8.59772C8.7627 8.93756 9 9.29498 9 9.51178C9 9.72858 8.7627 10.086 8.08594 10.4258C7.40918 10.7657 6.39258 11.0118 5.25 11.0118C4.10742 11.0118 3.09082 10.7657 2.41406 10.4258C1.7373 10.086 1.5 9.72858 1.5 9.51178C1.5 9.29498 1.7373 8.93756 2.41406 8.59772C3.09082 8.25787 4.10742 8.01178 5.25 8.01178ZM16.5 8.64459V9.51178C16.5 9.72858 16.2627 10.086 15.5859 10.4258C14.9092 10.7657 13.8926 11.0118 12.75 11.0118C11.8975 11.0118 11.127 10.8712 10.5 10.6602V9.51178C10.5 9.4151 10.4678 9.32135 10.4531 9.23053C11.1504 9.41217 11.9238 9.51178 12.75 9.51178C14.0947 9.51178 15.3135 9.25983 16.2656 8.78522C16.3477 8.7442 16.4209 8.68854 16.5 8.64459ZM1.5 11.6446C1.5791 11.6885 1.65234 11.7442 1.73438 11.7852C2.68652 12.2598 3.90527 12.5118 5.25 12.5118C6.59473 12.5118 7.81348 12.2598 8.76562 11.7852C8.84766 11.7442 8.9209 11.6885 9 11.6446V12.5118C9 12.7286 8.7627 13.086 8.08594 13.4258C7.40918 13.7657 6.39258 14.0118 5.25 14.0118C4.10742 14.0118 3.09082 13.7657 2.41406 13.4258C1.7373 13.086 1.5 12.7286 1.5 12.5118V11.6446ZM16.5 11.6446V12.5118C16.5 12.7286 16.2627 13.086 15.5859 13.4258C14.9092 13.7657 13.8926 14.0118 12.75 14.0118C11.8975 14.0118 11.127 13.8917 10.5 13.6837V12.2305C11.1885 12.4122 11.9385 12.5118 12.75 12.5118C14.0947 12.5118 15.3135 12.2598 16.2656 11.7852C16.3477 11.7442 16.4209 11.6885 16.5 11.6446ZM1.5 14.6446C1.5791 14.6885 1.65234 14.7442 1.73438 14.7852C2.68652 15.2598 3.90527 15.5118 5.25 15.5118C6.59473 15.5118 7.81348 15.2598 8.76562 14.7852C8.84766 14.7442 8.9209 14.6885 9 14.6446V15.5118C9 15.7286 8.7627 16.086 8.08594 16.4258C7.40918 16.7657 6.39258 17.0118 5.25 17.0118C4.10742 17.0118 3.09082 16.7657 2.41406 16.4258C1.7373 16.086 1.5 15.7286 1.5 15.5118V14.6446Z" fill="#1A3835"/>
</svg>
