<svg width="24" height="24" viewBox="0 0 24 24" fill="none" xmlns="http://www.w3.org/2000/svg">
<g clip-path="url(#clip0_815_1450)">
<path fill-rule="evenodd" clip-rule="evenodd" d="M3 12C3 7.03711 7.03711 3 12 3C16.6506 3 20.4882 6.54499 20.9528 11.0748H19.4439C18.9899 7.36223 15.838 4.5 12 4.5C7.84863 4.5 4.5 7.84863 4.5 12C4.5 16.1514 7.84863 19.5 12 19.5C12.7578 19.5 13.4889 19.3884 14.1777 19.1807V20.7337C13.4802 20.9076 12.7507 21 12 21C7.03711 21 3 16.9629 3 12ZM14.1777 11.25V12.75H11.25V6H12.75V11.25H14.1777Z" fill="#1A3835"/>
<path d="M17.5479 12V13.5C16.2729 13.725 15.2979 14.775 15.2979 16.125C15.2979 17.625 16.4229 18.75 17.9229 18.75H18.6729C19.2729 18.75 19.7979 19.275 19.7979 19.875C19.7979 20.475 19.2729 21 18.6729 21H16.0479V22.5H17.5479V24H19.0479V22.5C20.3229 22.275 21.2979 21.225 21.2979 19.875C21.2979 18.375 20.1729 17.25 18.6729 17.25H17.9229C17.3229 17.25 16.7979 16.725 16.7979 16.125C16.7979 15.525 17.3229 15 17.9229 15H20.5479V13.5H19.0479V12H17.5479Z" fill="#1A3835"/>
</g>
<defs>
<clipPath id="clip0_815_1450">
<rect width="24" height="24" fill="white"/>
</clipPath>
</defs>
</svg>
