<svg width="18" height="17" viewBox="0 0 18 17" fill="none" xmlns="http://www.w3.org/2000/svg">
<path d="M8.25 0.26178C7.42969 0.26178 6.75 0.941467 6.75 1.76178V2.51178H0V16.0118H18V2.51178H11.25V1.76178C11.25 0.941467 10.5703 0.26178 9.75 0.26178H8.25ZM8.25 1.76178H9.75V3.26178H8.25V1.76178ZM1.5 4.01178H6.75V4.76178H11.25V4.01178H16.5V14.5118H1.5V4.01178ZM9 5.51178C7.35059 5.51178 6 6.86237 6 8.51178C6 9.34967 6.35156 10.1085 6.91113 10.6534C5.90918 11.3301 5.25 12.4727 5.25 13.7618H6.75C6.75 12.5108 7.74902 11.5118 9 11.5118C10.251 11.5118 11.25 12.5108 11.25 13.7618H12.75C12.75 12.4727 12.0908 11.3301 11.0889 10.6534C11.6484 10.1085 12 9.34967 12 8.51178C12 6.86237 10.6494 5.51178 9 5.51178ZM9 7.01178C9.83789 7.01178 10.5 7.67389 10.5 8.51178C10.5 9.34967 9.83789 10.0118 9 10.0118C8.16211 10.0118 7.5 9.34967 7.5 8.51178C7.5 7.67389 8.16211 7.01178 9 7.01178Z" fill="#1A3835"/>
</svg>
