<svg width="280" height="33" viewBox="0 0 280 33" fill="none" xmlns="http://www.w3.org/2000/svg">
<path d="M3.01755 32.2267C3.417 32.2267 3.77317 31.9752 3.9068 31.5987L13.2723 5.21685C13.2975 5.14567 13.3649 5.09811 13.4404 5.09811C13.5159 5.09811 13.5833 5.14567 13.6086 5.21685L22.9735 31.5987C23.1071 31.9752 23.4633 32.2267 23.8628 32.2267H25.9358C26.5919 32.2267 27.0478 31.5737 26.8216 30.9578L15.6814 0.618372C15.545 0.246904 15.1913 0 14.7956 0H12.0847C11.689 0 11.3353 0.246905 11.1989 0.618373L0.0586563 30.9578C-0.16749 31.5737 0.28836 32.2267 0.944454 32.2267H3.01755Z" fill="#1A3835"/>
<path d="M57.8958 0.943625C57.8958 0.422475 57.4733 0 56.9522 0H55.0003C54.4791 0 54.0567 0.422475 54.0567 0.943624V25.1594C54.0567 25.2736 53.9641 25.3661 53.85 25.3661C53.7823 25.3661 53.7189 25.333 53.6803 25.2774L36.3994 0.405205C36.223 0.151371 35.9335 0 35.6245 0H33.2846C32.7634 0 32.3409 0.422474 32.3409 0.943624V31.283C32.3409 31.8042 32.7634 32.2267 33.2846 32.2267H35.2997C35.8209 32.2267 36.2433 31.8042 36.2433 31.283V7.13046C36.2433 7.01634 36.3358 6.92383 36.45 6.92383C36.5177 6.92383 36.5811 6.95701 36.6197 7.01264L53.8379 31.8211C54.0142 32.0751 54.3039 32.2267 54.6131 32.2267H56.9522C57.4733 32.2267 57.8958 31.8042 57.8958 31.283V0.943625Z" fill="#1A3835"/>
<path d="M65.2339 3.46165C64.7127 3.46165 64.2903 3.03918 64.2903 2.51803V0.943624C64.2903 0.422475 64.7127 0 65.2339 0H87.5171C88.0382 0 88.4607 0.422475 88.4607 0.943625V2.51803C88.4607 3.03918 88.0382 3.46165 87.5171 3.46165H79.2703C78.7491 3.46165 78.3267 3.88413 78.3267 4.40528V31.283C78.3267 31.8042 77.9042 32.2267 77.383 32.2267H75.3679C74.8467 32.2267 74.4243 31.8042 74.4243 31.283V4.40528C74.4243 3.88413 74.0018 3.46165 73.4806 3.46165H65.2339Z" fill="#1A3835"/>
<path d="M160.937 31.283C160.937 31.8042 161.359 32.2267 161.881 32.2267H180.623C181.144 32.2267 181.566 31.8042 181.566 31.283V27.5526C181.566 27.0315 181.144 26.609 180.623 26.609H168.694C168.173 26.609 167.75 26.1865 167.75 25.6654V0.943625C167.75 0.422475 167.328 0 166.807 0H161.881C161.359 0 160.937 0.422474 160.937 0.943624V31.283Z" fill="#1A3835"/>
<path d="M245.257 0C245.778 0 246.2 0.422475 246.2 0.943625V31.283C246.2 31.8042 245.778 32.2267 245.257 32.2267H240.81C240.5 32.2267 240.21 32.0745 240.034 31.8196L226.341 12.01C226.312 11.9681 226.264 11.9431 226.213 11.9431C226.128 11.9431 226.058 12.0126 226.058 12.0982V31.283C226.058 31.8042 225.636 32.2267 225.114 32.2267H220.188C219.667 32.2267 219.245 31.8042 219.245 31.283V0.943624C219.245 0.422474 219.667 0 220.188 0H224.727C225.038 0 225.329 0.153235 225.505 0.409646L239.079 20.187C239.114 20.2374 239.171 20.2675 239.232 20.2675C239.335 20.2675 239.418 20.1844 239.418 20.082V0.943626C239.418 0.422476 239.84 0 240.361 0H245.257Z" fill="#1A3835"/>
<path d="M252.011 0C251.289 0 250.834 0.77828 251.189 1.40732L262.028 20.6184C262.108 20.7599 262.15 20.9196 262.15 21.0821V31.283C262.15 31.8042 262.573 32.2267 263.094 32.2267H267.973C268.494 32.2267 268.916 31.8042 268.916 31.283V21.082C268.916 20.9196 268.958 20.7599 269.038 20.6184L279.877 1.4073C280.232 0.778264 279.777 0 279.055 0H273.607C273.258 0 272.937 0.193187 272.773 0.502071L265.764 13.7397C265.719 13.8252 265.63 13.8788 265.533 13.8788C265.437 13.8788 265.348 13.8252 265.302 13.7397L258.293 0.502072C258.13 0.193187 257.809 0 257.459 0H252.011Z" fill="#1A3835"/>
<path fill-rule="evenodd" clip-rule="evenodd" d="M153.975 24.8622C155.307 22.4617 155.974 19.5501 155.974 16.1275C155.974 12.7054 155.307 9.79386 153.975 7.3928C152.654 4.99224 150.849 3.1638 148.562 1.90696C146.286 0.64003 143.726 0.00681592 140.883 0.00681592C138.019 0.00681592 135.449 0.64003 133.173 1.90696C130.896 3.1638 129.097 4.99224 127.775 7.3928C126.454 9.79386 125.793 12.7054 125.793 16.1275C125.793 19.54 126.454 22.4465 127.775 24.8471C129.097 27.2482 130.896 29.0817 133.173 30.3486C135.449 31.6155 138.019 32.2487 140.883 32.2487C143.726 32.2487 146.286 31.6206 148.562 30.3637C150.849 29.0968 152.654 27.2633 153.975 24.8622ZM148.043 10.519C148.725 12.0414 149.066 13.9108 149.066 16.1275C149.066 18.3448 148.725 20.2141 148.043 21.7366C147.371 23.2585 146.422 24.4128 145.195 25.1996C143.967 25.9863 142.53 26.3796 140.883 26.3796C139.236 26.3796 137.799 25.9863 136.572 25.1996C135.344 24.4128 134.39 23.2585 133.708 21.7366C133.036 20.2141 132.7 18.3448 132.7 16.1275C132.7 13.9108 133.036 12.0414 133.708 10.519C134.39 8.99705 135.344 7.84272 136.572 7.056C137.799 6.26928 139.236 5.87592 140.883 5.87592C142.53 5.87592 143.967 6.26928 145.195 7.056C146.422 7.84272 147.371 8.99705 148.043 10.519Z" fill="#1A3835"/>
<path fill-rule="evenodd" clip-rule="evenodd" d="M215.186 16.1275C215.186 19.5501 214.519 22.4617 213.187 24.8622C211.866 27.2633 210.061 29.0968 207.774 30.3637C205.498 31.6206 202.938 32.2487 200.095 32.2487C197.231 32.2487 194.661 31.6155 192.385 30.3486C190.108 29.0817 188.309 27.2482 186.987 24.8471C185.666 22.4465 185.005 19.54 185.005 16.1275C185.005 12.7054 185.666 9.79386 186.987 7.3928C188.309 4.99224 190.108 3.1638 192.385 1.90696C194.661 0.64003 197.231 0.00681592 200.095 0.00681592C202.938 0.00681592 205.498 0.64003 207.774 1.90696C210.061 3.1638 211.866 4.99224 213.187 7.3928C214.519 9.79386 215.186 12.7054 215.186 16.1275ZM208.278 16.1275C208.278 13.9108 207.937 12.0414 207.255 10.519C206.583 8.99705 205.634 7.84272 204.407 7.056C203.179 6.26928 201.742 5.87592 200.095 5.87592C198.448 5.87592 197.011 6.26928 195.784 7.056C194.556 7.84272 193.602 8.99705 192.92 10.519C192.248 12.0414 191.912 13.9108 191.912 16.1275C191.912 18.3448 192.248 20.2141 192.92 21.7366C193.602 23.2585 194.556 24.4128 195.784 25.1996C197.011 25.9863 198.448 26.3796 200.095 26.3796C201.742 26.3796 203.179 25.9863 204.407 25.1996C205.634 24.4128 206.583 23.2585 207.255 21.7366C207.937 20.2141 208.278 18.3448 208.278 16.1275Z" fill="#1A3835"/>
<path d="M120.186 11.4234C120.751 11.4234 121.192 10.9423 121.09 10.4012C120.824 8.99424 120.373 7.72069 119.736 6.58083C118.96 5.171 117.953 3.98082 116.715 3.01029C115.477 2.02967 114.056 1.28385 112.451 0.772834C110.856 0.262323 109.125 0.00681592 107.258 0.00681592C104.425 0.00681592 101.876 0.64003 99.6104 1.90696C97.3445 3.1638 95.5504 4.99224 94.2286 7.3928C92.9069 9.79387 92.2458 12.7054 92.2458 16.1275C92.2458 19.54 92.8966 22.4465 94.197 24.8471C95.5084 27.2482 97.2921 29.0817 99.5477 30.3486C101.814 31.6155 104.383 32.2487 107.258 32.2487C109.324 32.2487 111.176 31.9473 112.813 31.3444C114.46 30.7318 115.876 29.9042 117.061 28.862C118.257 27.8097 119.207 26.6195 119.91 25.2915C120.454 24.2711 120.842 23.2209 121.075 22.1411C121.191 21.6034 120.752 21.1213 120.188 21.1188L115.145 21.0963C114.688 21.0942 114.302 21.4143 114.173 21.8418C114.011 22.3819 113.788 22.878 113.505 23.3302C113.106 23.9841 112.603 24.5406 111.994 25.0006C111.386 25.45 110.689 25.7924 109.902 26.0272C109.125 26.262 108.281 26.3796 107.368 26.3796C105.742 26.3796 104.31 25.9913 103.072 25.2147C101.834 24.4386 100.869 23.2893 100.177 21.7669C99.4948 20.2449 99.1541 18.365 99.1541 16.1275C99.1541 13.9517 99.4948 12.1025 100.177 10.5806C100.859 9.04805 101.819 7.88362 103.056 7.0868C104.294 6.27937 105.747 5.87592 107.415 5.87592C108.339 5.87592 109.194 6.00367 109.98 6.25918C110.778 6.51418 111.48 6.88229 112.089 7.3625C112.697 7.84272 113.196 8.42493 113.584 9.10915C113.851 9.57348 114.056 10.0835 114.199 10.6396C114.313 11.0839 114.704 11.4234 115.175 11.4234H120.186Z" fill="#1A3835"/>
</svg>
 