<svg width="25" height="24" viewBox="0 0 25 24" fill="none" xmlns="http://www.w3.org/2000/svg">
<path fill-rule="evenodd" clip-rule="evenodd" d="M7.25 3.75V3H8.75V3.75H16.25V3H17.75V3.75H20.75V11.9556C20.2895 11.6583 19.7856 11.4223 19.25 11.2592V8.25H5.75V18.75H11.7592C11.9223 19.2856 12.1583 19.7895 12.4556 20.25H4.25V3.75H7.25ZM11.6304 15.75C11.545 16.1532 11.5 16.5713 11.5 17C11.5 17.0837 11.5017 17.1671 11.5051 17.25H10.25V15.75H11.6304ZM13.2647 12.75C13.2598 12.7549 13.2549 12.7598 13.25 12.7647V12.75H13.2647ZM17.75 11.0051C17.6671 11.0017 17.5837 11 17.5 11C17.0713 11 16.6532 11.045 16.25 11.1304V9.75H17.75V11.0051ZM7.25 5.25H5.75V6.75H19.25V5.25H17.75V6H16.25V5.25H8.75V6H7.25V5.25ZM10.25 11.25V9.75H11.75V11.25H10.25ZM13.25 11.25V9.75H14.75V11.25H13.25ZM7.25 14.25V12.75H8.75V14.25H7.25ZM10.25 14.25V12.75H11.75V14.25H10.25ZM7.25 17.25V15.75H8.75V17.25H7.25Z" fill="#1A3835"/>
<path d="M17.5 12C14.7438 12 12.5 14.2438 12.5 17C12.5 19.7562 14.7438 22 17.5 22C20.2562 22 22.5 19.7562 22.5 17C22.5 14.2438 20.2562 12 17.5 12ZM17.5 13.25C19.575 13.25 21.25 14.925 21.25 17C21.25 19.075 19.575 20.75 17.5 20.75C15.425 20.75 13.75 19.075 13.75 17C13.75 14.925 15.425 13.25 17.5 13.25ZM16.875 13.875V17.625H20V16.375H18.125V13.875H16.875Z" fill="#1A3835"/>
</svg>
